<svg width="81" height="26" viewBox="0 0 81 26" fill="none" xmlns="http://www.w3.org/2000/svg">
<g clip-path="url(#clip0_184_259)">
<path d="M41.8912 8.27864C41.845 11.8861 45.1385 13.899 47.6195 15.096C50.1684 16.3239 51.0246 17.1114 51.0145 18.2097C50.9955 19.8903 48.9813 20.6321 47.0964 20.6609C43.808 20.7113 41.896 19.7819 40.376 19.079L39.1913 24.5669C40.7164 25.2626 43.5403 25.8694 46.4687 25.896C53.3426 25.896 57.8397 22.5367 57.8641 17.3282C57.891 10.7179 48.6288 10.3521 48.6921 7.39746C48.7139 6.50156 49.5774 5.54551 51.4695 5.30243C52.4061 5.17963 54.9914 5.08566 57.9226 6.42199L59.073 1.11236C57.4967 0.544115 55.4708 -5.72205e-06 52.9484 -5.72205e-06C46.4785 -5.72205e-06 41.9279 3.40505 41.8912 8.27864ZM70.1276 0.457342C68.8725 0.457342 67.8147 1.18221 67.3426 2.29457L57.5236 25.506H64.3925L65.7593 21.7661H74.153L74.9459 25.506H81L75.717 0.457342H70.1276ZM71.0886 7.22392L73.0709 16.63H67.642L71.0886 7.22392ZM33.5631 0.457655L28.1488 25.5057H34.6943L40.1061 0.457029L33.5631 0.457655ZM23.8801 0.457655L17.0673 17.5065L14.3114 3.01004C13.988 1.39178 12.711 0.457342 11.2929 0.457342H0.155988L0 1.18472C2.28635 1.6759 4.88405 2.46811 6.45785 3.31578C7.42099 3.83358 7.69563 4.28624 8.01204 5.51669L13.2318 25.506H20.1488L30.7534 0.457342L23.8801 0.457655Z" fill="url(#paint0_linear_184_259)"/>
</g>
<defs>
<linearGradient id="paint0_linear_184_259" x1="3723.89" y1="77.8434" x2="3798.11" y2="-2581.76" gradientUnits="userSpaceOnUse">
<stop stop-color="#222357"/>
<stop offset="1" stop-color="#254AA5"/>
</linearGradient>
<clipPath id="clip0_184_259">
<rect width="81" height="26" fill="white"/>
</clipPath>
</defs>
</svg>
