<svg width="27" height="29" viewBox="0 0 27 29" fill="none" xmlns="http://www.w3.org/2000/svg">
<path d="M5.64537 28.8334C4.84271 28.8334 4.15949 28.5516 3.59571 27.9878C3.03193 27.424 2.75004 26.7414 2.75004 25.9399V3.75011H0.958374V1.95844H8.12504V0.578857H18.875V1.95844H26.0417V3.75011H24.25V25.9399C24.25 26.7641 23.9741 27.4527 23.4223 28.0057C22.8705 28.5587 22.1813 28.8346 21.3547 28.8334H5.64537ZM22.4584 3.75011H4.54171V25.9399C4.54171 26.2612 4.64503 26.5252 4.85167 26.7318C5.0583 26.9385 5.32287 27.0418 5.64537 27.0418H21.3565C21.6312 27.0418 21.8838 26.9271 22.1144 26.6978C22.3449 26.4684 22.4596 26.2152 22.4584 25.9381V3.75011ZM9.57271 23.4584H11.3644V7.33344H9.57271V23.4584ZM15.6357 23.4584H17.4274V7.33344H15.6357V23.4584Z" fill="#040404"/>
</svg>
