<svg width="33" height="33" viewBox="0 0 33 33" fill="none" xmlns="http://www.w3.org/2000/svg">
<path fill-rule="evenodd" clip-rule="evenodd" d="M14.4999 0.866699C12.2409 0.866892 10.0147 1.40731 8.00703 2.44286C5.99935 3.47841 4.26842 4.97906 2.95866 6.81962C1.6489 8.66018 0.798284 10.7873 0.477781 13.0234C0.157279 15.2596 0.376183 17.54 1.11623 19.6743C1.85628 21.8087 3.09601 23.7351 4.732 25.2929C6.36798 26.8507 8.35278 27.9947 10.5208 28.6294C12.6888 29.2641 14.9772 29.3711 17.195 28.9416C19.4128 28.512 21.4957 27.5583 23.2699 26.16L29.3566 32.2467C29.6709 32.5503 30.0919 32.7183 30.5289 32.7145C30.9659 32.7107 31.384 32.5354 31.693 32.2264C32.002 31.9174 32.1773 31.4994 32.1811 31.0624C32.1849 30.6254 32.0169 30.2044 31.7133 29.89L25.6266 23.8034C27.2733 21.7144 28.2985 19.204 28.5851 16.5596C28.8717 13.9151 28.4079 11.2434 27.247 8.85019C26.086 6.45698 24.2747 4.43896 22.0204 3.02708C19.7661 1.61521 17.1599 0.866521 14.4999 0.866699ZM3.6666 15.0334C3.6666 12.1602 4.80797 9.40469 6.83961 7.37304C8.87125 5.3414 11.6268 4.20003 14.4999 4.20003C17.3731 4.20003 20.1286 5.3414 22.1603 7.37304C24.1919 9.40469 25.3333 12.1602 25.3333 15.0334C25.3333 17.9065 24.1919 20.662 22.1603 22.6937C20.1286 24.7253 17.3731 25.8667 14.4999 25.8667C11.6268 25.8667 8.87125 24.7253 6.83961 22.6937C4.80797 20.662 3.6666 17.9065 3.6666 15.0334Z" fill="#800080"/>
</svg>
