<svg width="44" height="45" viewBox="0 0 44 45" fill="none" xmlns="http://www.w3.org/2000/svg">
<path d="M0.25 2.625C0.25 2.12772 0.447544 1.65081 0.799175 1.29917C1.15081 0.947544 1.62772 0.75 2.125 0.75H3.52C5.895 0.75 7.32 2.3475 8.1325 3.8325C8.675 4.8225 9.0675 5.97 9.375 7.01L9.625 7H40.87C42.945 7 44.445 8.985 43.875 10.9825L39.305 27.005C38.8953 28.4421 38.0284 29.7066 36.8357 30.607C35.643 31.5074 34.1894 31.9947 32.695 31.995H17.825C16.3187 31.9951 14.8541 31.5004 13.6563 30.5872C12.4585 29.6739 11.5937 28.3925 11.195 26.94L9.295 20.01L6.145 9.39L6.1425 9.37C5.7525 7.9525 5.3875 6.625 4.8425 5.635C4.32 4.6725 3.9 4.5 3.5225 4.5H2.125C1.62772 4.5 1.15081 4.30246 0.799175 3.95083C0.447544 3.59919 0.25 3.12228 0.25 2.625ZM12.9325 19.1L14.81 25.9475C15.185 27.3025 16.4175 28.245 17.825 28.245H32.695C33.3743 28.245 34.035 28.0237 34.5772 27.6145C35.1195 27.2054 35.5136 26.6307 35.7 25.9775L40.0425 10.75H10.4625L12.8975 18.9675L12.9325 19.1ZM21.5 39.5C21.5 40.8261 20.9732 42.0979 20.0355 43.0355C19.0979 43.9732 17.8261 44.5 16.5 44.5C15.1739 44.5 13.9021 43.9732 12.9645 43.0355C12.0268 42.0979 11.5 40.8261 11.5 39.5C11.5 38.1739 12.0268 36.9021 12.9645 35.9645C13.9021 35.0268 15.1739 34.5 16.5 34.5C17.8261 34.5 19.0979 35.0268 20.0355 35.9645C20.9732 36.9021 21.5 38.1739 21.5 39.5ZM17.75 39.5C17.75 39.1685 17.6183 38.8505 17.3839 38.6161C17.1495 38.3817 16.8315 38.25 16.5 38.25C16.1685 38.25 15.8505 38.3817 15.6161 38.6161C15.3817 38.8505 15.25 39.1685 15.25 39.5C15.25 39.8315 15.3817 40.1495 15.6161 40.3839C15.8505 40.6183 16.1685 40.75 16.5 40.75C16.8315 40.75 17.1495 40.6183 17.3839 40.3839C17.6183 40.1495 17.75 39.8315 17.75 39.5ZM39 39.5C39 40.8261 38.4732 42.0979 37.5355 43.0355C36.5979 43.9732 35.3261 44.5 34 44.5C32.6739 44.5 31.4021 43.9732 30.4645 43.0355C29.5268 42.0979 29 40.8261 29 39.5C29 38.1739 29.5268 36.9021 30.4645 35.9645C31.4021 35.0268 32.6739 34.5 34 34.5C35.3261 34.5 36.5979 35.0268 37.5355 35.9645C38.4732 36.9021 39 38.1739 39 39.5ZM35.25 39.5C35.25 39.1685 35.1183 38.8505 34.8839 38.6161C34.6495 38.3817 34.3315 38.25 34 38.25C33.6685 38.25 33.3505 38.3817 33.1161 38.6161C32.8817 38.8505 32.75 39.1685 32.75 39.5C32.75 39.8315 32.8817 40.1495 33.1161 40.3839C33.3505 40.6183 33.6685 40.75 34 40.75C34.3315 40.75 34.6495 40.6183 34.8839 40.3839C35.1183 40.1495 35.25 39.8315 35.25 39.5Z" fill="#800080"/>
</svg>
