<svg width="54" height="43" viewBox="0 0 54 43" fill="none" xmlns="http://www.w3.org/2000/svg">
<g clip-path="url(#clip0_184_261)">
<path d="M9.81702 42.7862V39.9402C9.81702 38.849 9.1686 38.1376 8.05717 38.1376C7.50156 38.1376 6.89955 38.3274 6.48274 38.9441C6.15874 38.4222 5.69573 38.1376 5.00111 38.1376C4.53789 38.1376 4.07509 38.2798 3.70448 38.8017V38.2325H2.73206V42.7862H3.70448V40.2721C3.70448 39.4659 4.12129 39.0862 4.76971 39.0862C5.41771 39.0862 5.74213 39.5132 5.74213 40.2721V42.7862H6.71456V40.2721C6.71456 39.4659 7.17735 39.0862 7.77937 39.0862C8.42779 39.0862 8.75179 39.5132 8.75179 40.2721V42.7862H9.81702ZM24.2179 38.2325H22.6437V36.8569H21.6713V38.2325H20.7915V39.1336H21.6711V41.2209C21.6711 42.2646 22.0879 42.881 23.1993 42.881C23.6161 42.881 24.0789 42.7389 24.4034 42.5491L24.1253 41.6952C23.8475 41.8849 23.5235 41.9324 23.2919 41.9324C22.8289 41.9324 22.6437 41.6479 22.6437 41.1734V39.1336H24.2179V38.2325ZM32.4605 38.1374C31.9049 38.1374 31.5345 38.4222 31.3029 38.8017V38.2325H30.3305V42.7862H31.3029V40.2248C31.3029 39.4659 31.6269 39.0389 32.2289 39.0389C32.4141 39.0389 32.6457 39.0865 32.8309 39.1338L33.1087 38.1852C32.9235 38.1376 32.6457 38.1376 32.4605 38.1376M20.0042 38.6122C19.541 38.28 18.8928 38.1379 18.1982 38.1379C17.087 38.1379 16.3462 38.707 16.3462 39.6083C16.3462 40.3674 16.9018 40.7941 17.8742 40.9365L18.3372 40.9841C18.8466 41.0787 19.1244 41.2211 19.1244 41.4584C19.1244 41.7903 18.754 42.0275 18.1056 42.0275C17.4574 42.0275 16.948 41.7903 16.6238 41.5532L16.1608 42.3121C16.6702 42.6915 17.3648 42.8813 18.0592 42.8813C19.3558 42.8813 20.0969 42.2648 20.0969 41.4108C20.0969 40.6044 19.4948 40.1774 18.5686 40.0353L18.1056 39.9877C17.6888 39.9402 17.3648 39.8455 17.3648 39.561C17.3648 39.2289 17.6888 39.0391 18.1982 39.0391C18.754 39.0391 19.3096 39.2762 19.5874 39.4186L20.0042 38.6122ZM45.843 38.1379C45.2872 38.1379 44.9168 38.4224 44.6852 38.8019V38.2327H43.7128V42.7864H44.6852V40.225C44.6852 39.4661 45.0094 39.0391 45.6112 39.0391C45.7966 39.0391 46.0282 39.0867 46.2134 39.134L46.4913 38.1854C46.306 38.1379 46.0282 38.1379 45.843 38.1379ZM33.433 40.5096C33.433 41.8851 34.359 42.8813 35.7946 42.8813C36.4428 42.8813 36.9058 42.7391 37.3688 42.3596L36.9058 41.5532C36.5354 41.8378 36.165 41.98 35.7482 41.98C34.961 41.98 34.4054 41.4108 34.4054 40.5096C34.4054 39.6558 34.961 39.0865 35.7482 39.0391C36.165 39.0391 36.5354 39.1813 36.9058 39.4661L37.3688 38.6597C36.9058 38.28 36.4428 38.1379 35.7946 38.1379C34.359 38.1379 33.433 39.134 33.433 40.5096ZM42.4164 40.5096V38.2327H41.4439V38.8019C41.1197 38.3751 40.6567 38.1379 40.0547 38.1379C38.8045 38.1379 37.8321 39.134 37.8321 40.5096C37.8321 41.8851 38.8045 42.8813 40.0547 42.8813C40.7029 42.8813 41.1661 42.6442 41.4439 42.2172V42.7864H42.4164V40.5096ZM38.8507 40.5096C38.8507 39.7031 39.3601 39.0391 40.1935 39.0391C40.9807 39.0391 41.5365 39.6558 41.5365 40.5096C41.5365 41.316 40.9807 41.98 40.1935 41.98C39.3601 41.9324 38.8507 41.316 38.8507 40.5096ZM27.228 38.1379C25.9314 38.1379 25.0052 39.0865 25.0052 40.5096C25.0052 41.9327 25.9312 42.8813 27.2742 42.8813C27.9224 42.8813 28.5708 42.6915 29.0803 42.2648L28.617 41.5532C28.2466 41.8378 27.7836 42.0275 27.3206 42.0275C26.7186 42.0275 26.1166 41.7429 25.9776 40.9363H29.2655V40.5571C29.3119 39.0865 28.4785 38.1379 27.228 38.1379ZM27.2278 38.9916C27.8296 38.9916 28.2466 39.3712 28.339 40.0828H26.0238C26.1164 39.4661 26.5332 38.9916 27.2278 38.9916ZM51.3531 40.5096V36.4302H50.3807V38.8019C50.0565 38.3751 49.5935 38.1379 48.9915 38.1379C47.7413 38.1379 46.7688 39.134 46.7688 40.5096C46.7688 41.8851 47.7413 42.8813 48.9915 42.8813C49.6399 42.8813 50.1029 42.6442 50.3807 42.2172V42.7864H51.3531V40.5096ZM47.7877 40.5096C47.7877 39.7031 48.2969 39.0391 49.1305 39.0391C49.9177 39.0391 50.4733 39.6558 50.4733 40.5096C50.4733 41.316 49.9177 41.98 49.1305 41.98C48.2969 41.9324 47.7877 41.316 47.7877 40.5096ZM15.2807 40.5096V38.2327H14.3083V38.8019C13.9841 38.3751 13.5211 38.1379 12.9191 38.1379C11.6688 38.1379 10.6964 39.134 10.6964 40.5096C10.6964 41.8851 11.6688 42.8813 12.9191 42.8813C13.5675 42.8813 14.0305 42.6442 14.3083 42.2172V42.7864H15.2807V40.5096ZM11.6688 40.5096C11.6688 39.7031 12.1783 39.0391 13.0117 39.0391C13.7989 39.0391 14.3547 39.6558 14.3547 40.5096C14.3547 41.316 13.7989 41.98 13.0117 41.98C12.1783 41.9324 11.6688 41.316 11.6688 40.5096Z" fill="black"/>
<path d="M19.6801 3.65234H34.2664V30.5005H19.6801V3.65234Z" fill="#FF5F00"/>
<path d="M20.6063 17.0766C20.6063 11.6217 23.1067 6.7832 26.95 3.65241C24.1256 1.37557 20.5601 0 16.6704 0C7.45516 0 0 7.63693 0 17.0766C0 26.5161 7.45516 34.1532 16.6702 34.1532C20.5599 34.1532 24.1253 32.7777 26.95 30.5006C23.1067 27.4174 20.6063 22.5316 20.6063 17.0766Z" fill="#EB001B"/>
<path d="M53.9465 17.0766C53.9465 26.5161 46.4913 34.1532 37.2763 34.1532C33.3866 34.1532 29.8211 32.7777 26.9965 30.5006C30.8861 27.37 33.3404 22.5316 33.3404 17.0766C33.3404 11.6217 30.8397 6.7832 26.9965 3.65241C29.8209 1.37557 33.3866 0 37.2763 0C46.4913 0 53.9465 7.68447 53.9465 17.0766Z" fill="#F79E1B"/>
</g>
<defs>
<clipPath id="clip0_184_261">
<rect width="54" height="43" fill="white"/>
</clipPath>
</defs>
</svg>
