<svg width="45" height="55" viewBox="0 0 45 55" fill="none" xmlns="http://www.w3.org/2000/svg">
<path fill-rule="evenodd" clip-rule="evenodd" d="M22.5 0.177002C19.298 0.177002 16.2273 1.44897 13.9631 3.71308C11.699 5.97719 10.4271 9.04798 10.4271 12.2499C10.4271 15.4519 11.699 18.5226 13.9631 20.7868C16.2273 23.0509 19.298 24.3228 22.5 24.3228C25.7019 24.3228 28.7727 23.0509 31.0368 20.7868C33.3009 18.5226 34.5729 15.4519 34.5729 12.2499C34.5729 9.04798 33.3009 5.97719 31.0368 3.71308C28.7727 1.44897 25.7019 0.177002 22.5 0.177002ZM14.2396 12.2499C14.2396 10.0591 15.1099 7.95805 16.659 6.40892C18.2081 4.85979 20.3092 3.9895 22.5 3.9895C24.6908 3.9895 26.7918 4.85979 28.341 6.40892C29.8901 7.95805 30.7604 10.0591 30.7604 12.2499C30.7604 14.4407 29.8901 16.5418 28.341 18.0909C26.7918 19.64 24.6908 20.5103 22.5 20.5103C20.3092 20.5103 18.2081 19.64 16.659 18.0909C15.1099 16.5418 14.2396 14.4407 14.2396 12.2499ZM22.5 28.1353C16.6211 28.1353 11.2023 29.4722 7.18898 31.7292C3.23415 33.9557 0.260396 37.326 0.260396 41.4791V41.7383C0.257854 44.6917 0.255312 48.3975 3.5061 51.0459C5.10481 52.3472 7.34402 53.275 10.3686 53.885C13.3983 54.5 17.3506 54.8228 22.5 54.8228C27.6494 54.8228 31.5991 54.5 34.6339 53.885C37.6585 53.275 39.8951 52.3472 41.4964 51.0459C44.7472 48.3975 44.7421 44.6917 44.7396 41.7383V41.4791C44.7396 37.326 41.7658 33.9557 37.8135 31.7292C33.7977 29.4722 28.3814 28.1353 22.5 28.1353ZM4.0729 41.4791C4.0729 39.3161 5.65381 36.9676 9.0571 35.0537C12.4019 33.1729 17.1498 31.9478 22.5025 31.9478C27.8502 31.9478 32.598 33.1729 35.9429 35.0537C39.3487 36.9676 40.9271 39.3161 40.9271 41.4791C40.9271 44.8036 40.8254 46.6743 39.0869 48.0874C38.1465 48.855 36.5706 49.6048 33.8765 50.1487C31.1899 50.6926 27.5172 51.0103 22.5 51.0103C17.4827 51.0103 13.8075 50.6926 11.1235 50.1487C8.42931 49.6048 6.85348 48.855 5.91306 48.09C4.17456 46.6742 4.0729 44.8036 4.0729 41.4791Z" fill="#800080"/>
</svg>
